<svg width="320" height="48" viewBox="0 0 320 48" fill="none" xmlns="http://www.w3.org/2000/svg">
<path d="M173.697 2.06641C171.777 2.06641 170.241 3.6664 170.241 5.6664V27.7997C170.241 32.9331 166.145 37.0664 161.217 36.9331C156.545 36.7997 152.897 32.7997 152.705 27.9997C152.705 27.9331 152.705 27.8664 152.705 27.7997V5.6664C152.705 3.6664 151.169 2.06641 149.249 2.06641H147.713C145.793 2.06641 144.257 3.6664 144.257 5.6664V27.5997C144.257 32.5997 140.545 36.7997 135.745 36.9331C130.817 37.0664 126.721 32.9331 126.721 27.7997V5.6664C126.721 3.6664 125.185 2.06641 123.265 2.06641L121.601 2.06641C119.681 2.06641 118.145 3.6664 118.145 5.6664V27.5331C118.145 37.4664 125.953 45.8664 135.489 45.8664C140.673 45.8664 145.281 43.4664 148.481 39.6664C151.745 43.5997 156.609 45.9997 162.049 45.8664C171.457 45.5997 178.817 37.3331 178.817 27.5997V5.73307C178.817 3.73307 177.281 2.13307 175.361 2.13307L173.697 2.13307V2.06641Z" fill="#231E6A"/>
<path d="M272.192 45.8L253.312 45.8C243.52 45.8 235.52 37.5333 235.52 27.2667V5.53334C235.52 3.6 237.056 2 238.912 2L240.576 2C242.432 2 243.968 3.6 243.968 5.53334V27.2667C243.968 32.6 248.128 36.9333 253.248 36.9333L272.128 36.9333C273.984 36.9333 275.52 38.5333 275.52 40.4667V42.2C275.584 44.2 274.048 45.8 272.192 45.8Z" fill="#231E6A"/>
<path d="M315.264 45.8L296.384 45.8C286.592 45.8 278.592 37.5333 278.592 27.2667V5.53334C278.592 3.6 280.128 2 281.984 2L283.648 2C285.504 2 287.04 3.6 287.04 5.53334V27.2667C287.04 32.6 291.2 36.9333 296.32 36.9333L315.2 36.9333C317.056 36.9333 318.592 38.5333 318.592 40.4667V42.2C318.656 44.2 317.12 45.8 315.264 45.8Z" fill="#231E6A"/>
<path d="M87.9357 45.7997C76.4157 45.5997 67.2637 35.5997 67.2637 23.5997V5.8664C67.2637 3.73307 68.9277 2.06641 70.9117 2.06641L72.0637 2.06641C74.1117 2.06641 75.7117 3.79974 75.7117 5.8664V23.6664C75.7117 30.7997 81.0877 36.7997 87.9357 36.9331C94.9757 37.0664 100.736 31.1997 100.736 23.9331V5.8664C100.736 3.73307 102.4 2.06641 104.384 2.06641L105.536 2.06641C107.584 2.06641 109.184 3.79974 109.184 5.8664V23.9331C109.248 36.1331 99.6477 45.9997 87.9357 45.7997Z" fill="#231E6A"/>
<path d="M224.896 28.4001L205.632 28.4001C203.264 28.4001 201.408 26.4001 201.408 24.0001C201.408 21.5334 203.328 19.6001 205.632 19.6001L224.896 19.6001C227.136 19.6001 228.928 21.4668 228.928 23.8001V24.3334C228.864 26.5334 227.072 28.4001 224.896 28.4001Z" fill="#231E6A"/>
<path d="M186.239 23.5997C186.431 11.5997 196.031 2.06641 207.551 2.06641L225.279 2.06641C227.327 2.06641 228.927 3.79974 228.927 5.8664V7.06641C228.927 9.19974 227.263 10.8664 225.279 10.8664L207.487 10.8664C200.639 10.8664 194.879 16.4664 194.751 23.5997C194.623 30.9331 200.255 36.9331 207.231 36.9331L225.279 36.9331C227.327 36.9331 228.927 38.6664 228.927 40.7331V41.9331C228.927 44.0664 227.263 45.7331 225.279 45.7331L207.231 45.7331C195.583 45.7997 186.047 35.7997 186.239 23.5997Z" fill="#231E6A"/>
<path d="M39.2952 2.13336C50.8152 2.33336 59.9032 12.3334 59.9032 24.2667V42C59.9032 44.1334 58.2392 45.8 56.2552 45.8H55.0392C52.9912 45.8 51.3912 44.0667 51.3912 42L51.3912 24.2C51.3912 17.1334 46.0152 11.1334 39.2312 10.9334C32.2552 10.8 26.4952 16.6667 26.4952 23.9334L26.4952 42C26.4952 44.1334 24.8312 45.8 22.8472 45.8H21.6952C19.6472 45.8 18.0472 44.0667 18.0472 42L18.0472 23.9334C17.9832 11.8 27.5832 1.93336 39.2952 2.13336Z" fill="#231E6A"/>
<path d="M6.65592 45.8H5.69592C3.64792 45.8 1.91992 44.0667 1.91992 41.8667L1.91992 5.93334C1.91992 3.80001 3.58392 2 5.69592 2L6.65592 2C8.70392 2 10.4319 3.73334 10.4319 5.93334L10.4319 41.8667C10.4319 44.0667 8.70392 45.8 6.65592 45.8Z" fill="#231E6A"/>
</svg>
