<svg width="180" height="180" viewBox="0 0 180 180" fill="none" xmlns="http://www.w3.org/2000/svg">
<path d="M34.304 33.3898C34.394 33.3898 34.394 33.3898 34.304 33.3898C34.394 33.3898 34.394 33.3898 34.484 33.3898C58.064 33.4798 62.474 50.6698 66.704 67.4098C69.314 77.7598 72.284 89.4598 79.394 102.6C79.484 102.78 79.664 103.05 79.844 103.32L79.934 103.41C80.114 103.68 80.204 103.95 80.384 104.22C80.384 104.31 80.474 104.4 80.474 104.4C80.654 104.67 80.834 104.94 81.014 105.3C81.104 105.39 81.104 105.48 81.194 105.57C81.464 105.93 81.644 106.29 81.914 106.74C81.914 106.83 82.004 106.83 82.004 106.83C82.634 107.73 83.354 108.72 84.164 109.8C84.254 109.89 84.344 109.98 84.344 110.07C84.974 110.79 85.604 111.6 86.234 112.41C86.684 112.86 86.594 113.58 86.144 114.03C82.184 117.54 77.234 120.78 71.204 122.22C70.124 122.49 69.044 122.13 68.324 121.23C68.144 120.96 67.874 120.69 67.694 120.42C67.604 120.24 67.514 120.15 67.424 119.97C67.424 119.88 67.334 119.88 67.334 119.79C66.794 119.07 66.254 118.26 65.714 117.45C65.624 117.27 65.444 117.09 65.354 116.91C64.904 116.28 64.454 115.56 64.094 114.93C64.004 114.75 63.824 114.57 63.734 114.39C63.194 113.58 62.744 112.68 62.294 111.87C54.014 96.5698 48.614 78.6598 46.544 67.5898C43.304 50.3098 32.144 50.2198 28.094 56.0698C26.114 59.0398 24.944 63.8998 24.854 69.7498C24.404 92.5198 40.154 126.9 62.744 127.8C63.194 127.8 63.644 127.8 64.094 127.8C86.234 127.8 98.834 106.83 101.174 102.51C108.284 89.3698 111.254 77.6698 113.864 67.3198C118.094 50.6698 122.414 33.3898 146.084 33.2998H146.264C163.544 33.3898 174.614 47.1598 175.064 69.2998C175.694 100.8 154.454 145.62 118.544 147.06C117.824 147.06 117.104 147.06 116.384 147.06C109.634 147.06 103.334 145.8 97.484 143.64C96.584 143.28 96.494 142.11 97.214 141.57C102.884 137.88 107.834 133.38 112.064 128.52C112.604 127.89 113.414 127.53 114.314 127.62C115.394 127.71 116.564 127.71 117.734 127.62C140.324 126.72 156.074 92.3398 155.624 69.5698C155.534 63.7198 154.364 58.8598 152.384 55.8898C148.334 49.9498 137.264 50.1298 133.934 67.4098C131.864 78.4798 126.464 96.3898 118.184 111.69C108.734 128.97 89.744 147.06 64.094 147.06C63.374 147.06 62.654 147.06 61.934 147.06C26.024 145.62 4.78402 100.8 5.41402 69.2998C5.95402 47.2498 17.024 33.4798 34.304 33.3898Z" fill="#231E6A"/>
</svg>
